<svg xmlns="http://www.w3.org/2000/svg" width="1200" height="630" viewBox="0 0 1200 630">
  <defs>
    <linearGradient id="bg" x1="0" y1="0" x2="1" y2="1"><stop stop-color="#050914"/><stop offset="1" stop-color="#07151a"/></linearGradient>
    <linearGradient id="brand" x1="0" y1="0" x2="1" y2="1"><stop stop-color="#3b82f6"/><stop offset="1" stop-color="#10b981"/></linearGradient>
    <radialGradient id="glow"><stop stop-color="#3b82f6" stop-opacity=".24"/><stop offset="1" stop-color="#3b82f6" stop-opacity="0"/></radialGradient>
  </defs>
  <rect width="1200" height="630" fill="url(#bg)"/>
  <circle cx="1090" cy="80" r="360" fill="url(#glow)"/>
  <g opacity=".2" stroke="#3b82f6"><path d="M0 92h1200M0 538h1200"/><path d="M720 0v630"/></g>
  <g transform="translate(74 56) scale(1.05)" fill="none" stroke="url(#brand)" stroke-width="3" stroke-linejoin="round" stroke-linecap="round">
    <path d="M32 5 55 14v19c0 14.5-9.5 22.5-23 27C18.5 55.5 9 47.5 9 33V14Z"/>
    <path d="M41 22H24q-3 0-3 3v14q0 3 3 3h17M16 28h5M16 36h5M28 17v5M34 17v5M28 42v5M34 42v5"/>
    <circle cx="32" cy="32" r="3" fill="url(#brand)" stroke="none"/>
  </g>
  <text x="160" y="88" fill="#f8fafc" font-family="Inter, DejaVu Sans, sans-serif" font-size="24" font-weight="800">AHMED ALQAHTANI</text>
  <text x="160" y="116" fill="#7c91ad" font-family="Inter, DejaVu Sans, sans-serif" font-size="15" font-weight="700" letter-spacing="3">CYBPHANTOM · PORTFOLIO</text>
  <text x="74" y="230" fill="#f8fafc" font-family="Inter, DejaVu Sans, sans-serif" font-size="58" font-weight="800">Fleet operations &amp;</text>
  <text x="74" y="298" fill="url(#brand)" font-family="Inter, DejaVu Sans, sans-serif" font-size="58" font-weight="800">secure ERP systems.</text>
  <text x="76" y="346" fill="#9fb0c6" font-family="Inter, DejaVu Sans, sans-serif" font-size="23">Maintenance leadership backed by practical systems delivery.</text>
  <g font-family="Inter, DejaVu Sans, sans-serif">
    <g transform="translate(76 408)"><rect width="178" height="54" rx="14" fill="#0e1a2a" stroke="#22416b"/><text x="20" y="34" fill="#dbeafe" font-size="18" font-weight="700">11+ years</text></g>
    <g transform="translate(270 408)"><rect width="220" height="54" rx="14" fill="#0e1a2a" stroke="#1d4d48"/><text x="20" y="34" fill="#d1fae5" font-size="18" font-weight="700">28+ releases</text></g>
    <g transform="translate(506 408)"><rect width="270" height="54" rx="14" fill="#0e1a2a" stroke="#314064"/><text x="20" y="34" fill="#e0e7ff" font-size="18" font-weight="700">Security-aware delivery</text></g>
  </g>
  <g transform="translate(820 168)" font-family="Inter, DejaVu Sans, sans-serif">
    <rect width="306" height="300" rx="26" fill="#0c1421" stroke="#243650"/>
    <text x="28" y="48" fill="#7c91ad" font-size="14" font-weight="700" letter-spacing="2">VERIFIABLE EXPERIENCE</text>
    <text x="28" y="116" fill="#38bdf8" font-size="42" font-weight="800">3,000+</text><text x="28" y="145" fill="#9fb0c6" font-size="17">operational records reviewed</text>
    <path d="M28 172h250" stroke="#233044"/>
    <text x="28" y="229" fill="#34d399" font-size="42" font-weight="800">5.00</text><text x="28" y="258" fill="#9fb0c6" font-size="17">diploma GPA / 5</text>
  </g>
  <text x="76" y="568" fill="#64748b" font-family="Inter, DejaVu Sans, sans-serif" font-size="16">Operations · Reporting · Access controls · Audit-ready workflows</text>
</svg>
